
<svg xmlns="http://www.w3.org/2000/svg" version="1.1" xmlns:xlink="http://www.w3.org/1999/xlink" viewBox="0 0 200 200"><rect width="200" height="200" fill="url('#gradient')"></rect><defs><linearGradient id="gradient" gradientTransform="rotate(45 0.5 0.5)"><stop offset="0%" stop-color="#000000"></stop><stop offset="100%" stop-color="#000000"></stop></linearGradient></defs><g><g fill="#ffffff" transform="matrix(2.285076708507671,0,0,2.285076708507671,75.4447803144134,122.69245273265545)" stroke="#000000" stroke-width="0.2"><path d="M2.49-15.01L2.49-13.65L2.07-9.46L0.24-9.46L0.24-15.01L2.49-15.01ZM5.92-15.01L5.92-13.65L5.50-9.46L3.69-9.46L3.69-15.01L5.92-15.01ZM13.69-7.40L13.69-4.85L7.82-4.85L7.82-7.40L13.69-7.40ZM17.82-15.01L17.82-13.65L17.40-9.46L15.58-9.46L15.58-15.01L17.82-15.01ZM21.25-15.01L21.25-13.65L20.83-9.46L19.02-9.46L19.02-15.01L21.25-15.01Z"></path></g></g></svg>
